<svg xmlns="http://www.w3.org/2000/svg" width="348.872" height="166.604" viewBox="0 0 348.872 166.604"><g transform="translate(-100.864 -881.5)"><g transform="translate(100.864 881.5)"><path d="M1.6,86.673a21.675,21.675,0,0,0,7.654,9.251,16.092,16.092,0,0,0,.693,14.208,16.327,16.327,0,0,0,15.145,7.958,39.129,39.129,0,0,0-8.839,25.762,2.276,2.276,0,0,0,2.275,2.221h6.513a2.265,2.265,0,0,0,2.27-2.187,14.95,14.95,0,0,1,1.273-5.609A12,12,0,0,1,43.556,132a12.809,12.809,0,0,0,14.719-4.627c12.706,4.815,26.145,3.018,36.356-7.424,18.505,11.1,40.478-10.929,32.025-28.125l.1-.048a20.544,20.544,0,0,0-7.685-32.386C115.91,44.852,103.037,37.3,89.376,40.657a24.75,24.75,0,0,0-4.166,1.4l-.368-.111A19.765,19.765,0,0,0,52.875,40.16C34.871,26.458,11.229,41.854,12.4,62,1.512,66.753-2.553,77.05,1.6,86.673Z" transform="translate(-0.001 -32.861)" fill="#ffa4b8"/><path d="M2.952,38.4A5.994,5.994,0,0,0,5.11,49.477a23.6,23.6,0,0,1,7.413,2.552,5.944,5.944,0,0,0,6.581-.585,19.814,19.814,0,0,1,26.767,1.823l6.209,1.763c13.109-3.515,25.547,3.052,29.613,16.083a6.118,6.118,0,0,0,2.888,3.52,20.072,20.072,0,0,1,5.766,4.89,21.917,21.917,0,0,1,3.263,5.531A19.72,19.72,0,0,1,91.733,103.7a6.045,6.045,0,0,0-.711,5.079q.184.6.325,1.222a5.985,5.985,0,0,0,10.816,1.925c3.918-5.92,5.281-13.389,1.985-20.094l.1-.048A19.567,19.567,0,0,0,108,71.3a21.523,21.523,0,0,0-5.2-7.9,18.487,18.487,0,0,0-6.238-4C93.442,45.048,80.7,37.275,66.868,40.673a24.916,24.916,0,0,0-4.166,1.4l-.371-.114a19.773,19.773,0,0,0-31.963-1.782A24.015,24.015,0,0,0,2.952,38.4Z" transform="translate(22.507 -32.877)" fill="#ffbfcb"/><g transform="translate(8.165 4.434)"><path d="M13.411,208.368a26.125,26.125,0,0,1,2.764,3.268,2.289,2.289,0,0,1,.078,2.564,21.114,21.114,0,0,1-2.075,2.717l-.1.048a20.391,20.391,0,0,0-3.911-5.411,2.213,2.213,0,0,1-.648-1.572A2.282,2.282,0,0,1,13.411,208.368Z" transform="translate(104.41 -162.44)" fill="#ff8ca5"/><path d="M131.627,335.112a2.269,2.269,0,0,1,3.038-.424c.52.367,1.04.7,1.566,1.015a35.453,35.453,0,0,1-2.927,2.68c-1.237,1.01-3.133-1.514-1.677-3.269Z" transform="translate(-49.767 -253.053)" fill="#ff8ca5"/><path d="M46.394,106.61a20.045,20.045,0,0,1,3.657.13,2.307,2.307,0,0,1,1.874,1.476,28.658,28.658,0,0,1,1.154,3.936l.239.091a15.669,15.669,0,0,0-6.683-1.092,2.274,2.274,0,0,1-.24-4.541Z" transform="translate(57.825 -90.062)" fill="#ff8ca5"/><path d="M145.31,71.106a2.27,2.27,0,0,1-2.453-1.791,19.74,19.74,0,0,0-2.8-6.77c.068.1.134.2.2.307a20.819,20.819,0,0,1,2.517-.973,2.289,2.289,0,0,1,2.779,1.22,24.314,24.314,0,0,1,1.761,5.3,2.27,2.27,0,0,1-2,2.7Z" transform="translate(-63.441 -57.987)" fill="#ff8ca5"/><path d="M265.137,52.061a2.25,2.25,0,0,1-3.1.131c-.352-.3-.71-.588-1.069-.864a19.958,19.958,0,0,1,2.538-2.591C264.825,47.621,266.9,50.163,265.137,52.061Z" transform="translate(-216.264 -48.463)" fill="#ff8ca5"/><path d="M414.559,145.892a32.238,32.238,0,0,1-1.967-6.56,2.293,2.293,0,0,1,1.058-2.373,24.985,24.985,0,0,1,3.032-1.588,26.737,26.737,0,0,0,2.058,8.734,2.273,2.273,0,0,1-4.181,1.788Z" transform="translate(-412.444 -110.671)" fill="#ff8ca5"/><path d="M262.568,348.067a43.455,43.455,0,0,0,8.862,4.644,14.033,14.033,0,0,1-2.52,2.6,2.262,2.262,0,0,1-2.368.255,48.842,48.842,0,0,1-6.52-3.729,2.274,2.274,0,1,1,2.546-3.769Z" transform="translate(-221.321 -262.638)" fill="#ff8ca5"/><path d="M422.84,258.329a16.779,16.779,0,0,1,1.063-3.578q.661.46,1.364.873a2.274,2.274,0,0,1-1.171,4.226A1.29,1.29,0,0,1,422.84,258.329Z" transform="translate(-422.82 -196.122)" fill="#ff8ca5"/><path d="M294.909,244.021a14.563,14.563,0,0,0,6.572-2.007,2.065,2.065,0,0,1,.5-.328,10.177,10.177,0,0,0,2.408-2.335,2.274,2.274,0,0,1,3.669,2.687,14.5,14.5,0,0,1-1.866,2.085,10.825,10.825,0,0,0,11.191,2.853,2.274,2.274,0,1,1,1.39,4.33,15.335,15.335,0,0,1-16.382-4.6,18.987,18.987,0,0,1-7.395,1.864,2.274,2.274,0,0,1-.082-4.546Z" transform="translate(-279.815 -184.433)" fill="#ff8ca5"/><path d="M160.2,146.184a2.275,2.275,0,0,1-2.186-2.9,12.1,12.1,0,0,0-14.421-15.242,18.867,18.867,0,0,1-.2,3.292,2.274,2.274,0,1,1-4.494-.7,14.194,14.194,0,0,0-2.255-10.082,14.613,14.613,0,0,0-10.889-5.958,2.274,2.274,0,0,1,.244-4.541,20.26,20.26,0,0,1,9.7,3.295,20.7,20.7,0,0,1,5.224-6.427,2.274,2.274,0,0,1,2.872,3.525,16.279,16.279,0,0,0-4.565,6.033,17.77,17.77,0,0,1,3.724,7.05,16.639,16.639,0,0,1,19.433,21.007A2.274,2.274,0,0,1,160.2,146.184Z" transform="translate(-74.481 -89.942)" fill="#ff8ca5"/><path d="M107.838,265.094a2.274,2.274,0,1,1,.914-4.454,11.19,11.19,0,0,1,8.985,10.474,11.468,11.468,0,0,0,6.5-5.166,2.262,2.262,0,0,1,.5-.591,19.684,19.684,0,0,1-3.1-3.929,2.274,2.274,0,1,1,3.906-2.328,13.9,13.9,0,0,0,7.532,6.159c7.474,2.41,13.949-3.336,14.043-3.42a2.274,2.274,0,0,1,3.067,3.357c-.281.256-5.808,5.212-13.307,5.212a17.038,17.038,0,0,1-8.62-2.357q-.046.1-.1.2a15.962,15.962,0,0,1-17.066,7.584,2.274,2.274,0,0,1,.921-4.453,11.318,11.318,0,0,0,1.191.179A6.642,6.642,0,0,0,107.838,265.094Z" transform="translate(-57.333 -198.44)" fill="#ff8ca5"/><path d="M318.475,125.23a26.422,26.422,0,0,1-6.645-.924,18.773,18.773,0,0,1-9.807,9.554,2.274,2.274,0,1,1-1.773-4.188,14.258,14.258,0,0,0,7.3-6.944,25.94,25.94,0,0,1-11.217-10.27,2.274,2.274,0,0,1,3.917-2.309A21.331,21.331,0,0,0,318.5,120.683a2.274,2.274,0,0,1-.023,4.547Z" transform="translate(-281.155 -91.816)" fill="#ff8ca5"/></g></g><g transform="translate(325.193 910.566) rotate(65)"><path d="M59.872,30.276,68.389,17.37l-8.517-2.194a23.473,23.473,0,0,0-5.691-9.187A23.112,23.112,0,0,0,44.994.3l-.112.112L34.506,0,29.893.3a23.113,23.113,0,0,0-9.187,5.691L6.918,19.777a23.658,23.658,0,0,0,33.475,33.44L54.181,39.463A23.467,23.467,0,0,0,59.872,30.276ZM31.094,43.918A10.52,10.52,0,0,1,16.217,29.04L29.893,15.4l7.476,7.4,7.513,7.364Z" transform="translate(0 29.575)" fill="#62717e"/><path d="M47.263,33.475,33.475,47.228A23.67,23.67,0,0,1,0,47.228l9.3-9.3a10.517,10.517,0,0,0,14.878,0L37.964,24.176l-7.513-7.365L47.263,0a23.472,23.472,0,0,1,5.691,9.187l8.517,2.195L52.954,24.288A23.469,23.469,0,0,1,47.263,33.475Z" transform="translate(6.918 35.563)" fill="#62717e"/><path d="M4.49,8.21.771,4.49A2.63,2.63,0,1,1,4.49.771L8.21,4.49A2.63,2.63,0,0,1,4.49,8.21Z" transform="translate(68.288 68.267)" fill="#d2c5c2"/><path d="M4.491,8.21.771,4.49A2.63,2.63,0,0,1,4.49.771L8.21,4.49A2.63,2.63,0,0,1,4.491,8.21Z" transform="translate(12.497 12.476)" fill="#dfd7d5"/><path d="M.09,1.95A2.63,2.63,0,0,1,3.312.09L8.393,1.452A2.63,2.63,0,1,1,7.031,6.534L1.95,5.172A2.631,2.631,0,0,1,.09,1.95Z" transform="translate(77.817 51.76)" fill="#d2c5c2"/><path d="M.09,1.95A2.63,2.63,0,0,1,3.312.09L8.393,1.453A2.63,2.63,0,0,1,7.031,6.534L1.95,5.172A2.632,2.632,0,0,1,.09,1.95Z" transform="translate(1.605 31.339)" fill="#dfd7d5"/><path d="M1.453,8.394.09,3.312A2.63,2.63,0,1,1,5.172,1.95L6.534,7.032A2.63,2.63,0,1,1,1.453,8.394Z" transform="translate(51.781 77.795)" fill="#d2c5c2"/><path d="M1.453,8.393.09,3.311A2.63,2.63,0,1,1,5.172,1.949L6.534,7.031A2.63,2.63,0,0,1,1.453,8.393Z" transform="translate(31.36 1.585)" fill="#dfd7d5"/><path d="M54.181,6.932a23.672,23.672,0,0,0-33.475,0L6.918,20.685a23.473,23.473,0,0,0-5.691,9.187,23.836,23.836,0,0,0,0,15.1A23.618,23.618,0,0,0,16.105,59.851l.112-.111a10.551,10.551,0,0,0,0-14.878,10.551,10.551,0,0,1,0-14.878L30.005,16.231a10.341,10.341,0,0,1,7.439-3.05,1.7,1.7,0,0,1,.855.037,10.043,10.043,0,0,1,6.583,3.013,10.551,10.551,0,0,1,0,14.878L31.206,44.75a23.836,23.836,0,0,1,0,15.1,23.978,23.978,0,0,0,9.187-5.691L54.182,40.407A23.706,23.706,0,0,0,54.181,6.932Z" transform="translate(28.666 0)" fill="#ffb139"/><g transform="translate(35.584 6.932)"><path d="M9.3,14.878l-.111.111A23.434,23.434,0,0,1,0,9.3L9.3,0A10.551,10.551,0,0,1,9.3,14.878Z" transform="translate(0 37.929)" fill="#ffb139"/><path d="M22.975,33.475,9.187,47.228A23.976,23.976,0,0,1,0,52.919a23.835,23.835,0,0,0,0-15.1L13.677,24.176a10.551,10.551,0,0,0,0-14.878l9.3-9.3A23.705,23.705,0,0,1,22.975,33.475Z" transform="translate(24.288 0)" fill="#ffb139"/></g></g><g transform="translate(374.251 941.321)"><path d="M123.233,391.2v9.555a6.444,6.444,0,1,1-12.888,0V379.586c.166.276.35.534.534.792.147.221.294.442.46.644a.782.782,0,0,1,.092.129c.166.221.331.442.516.663a8.26,8.26,0,0,0,.626.773,3.032,3.032,0,0,0,.387.442,1.7,1.7,0,0,0,.166.184c.092.129.2.239.313.368v.018l.018.018.147.147c.037.055.092.092.129.147.018.018.037.018.037.037a3.686,3.686,0,0,0,.258.295q.525.58,1.1,1.1a.791.791,0,0,0,.184.166l.147.147c0,.018.018.037.037.018.092.111.2.2.294.294a8.866,8.866,0,0,0,.884.773.946.946,0,0,1,.147.129.182.182,0,0,0,.092.074c.479.387.957.773,1.454,1.16l.018.018q.746.552,1.491,1.049c.018,0,.018,0,.018.018.5.332,1.013.645,1.51.957a.385.385,0,0,0,.111.074c.276.166.552.331.847.5h.018a2.361,2.361,0,0,0,.368.2.4.4,0,0,0,.092.055,3.708,3.708,0,0,1,.368.2.018.018,0,0,0,.005.013A.017.017,0,0,0,123.233,391.2Z" transform="translate(-102.981 -300.42)" fill="#84b5cb"/><path d="M137.32,48.236a6.816,6.816,0,0,0,.313-2.209c0-5.523-5.523-12.887-11.047-12.887l.847-11.046a17.239,17.239,0,0,0,.994-5.523c0-4.308-3.369-8.6-9.205-10.292v-2.6a3.682,3.682,0,1,0-7.364,0V5.615A15.955,15.955,0,0,0,107.164,6.7l-1.6-4.013a3.058,3.058,0,0,0-5.781,1.97l1.749,6.112c-5.247,6.112-6.186,16.275-6.241,23.676v3.977c-1.178-.442-2.412-.976-3.682-1.6a2.153,2.153,0,0,0-.479-.184c-.018,0-.018.018-.037.018-1.915-.534-5.431.423-8.69,3.645v-.037C78.535,44.094,75.037,51.09,75.037,62.6c0,22.093,3.682,18.411,3.682,18.411a5.077,5.077,0,0,0,.773-.055A32.887,32.887,0,0,0,82.4,86.567a23.782,23.782,0,0,0,1.473,2.025.8.8,0,0,0,.092.129c0,.018.018.037.037.055s.018.037.055.055c.147.2.313.405.479.608a.565.565,0,0,1,.092.129l.387.442a1.671,1.671,0,0,0,.166.184c.092.129.2.239.313.368v.018l.018.018c.055.074.129.129.184.2a.221.221,0,0,1,.092.092h.018c0,.018.018.018.018.037a2.951,2.951,0,0,1,.239.239l.018.018v.018l.258.258c.276.294.571.589.847.865.111.111.221.2.331.313s.221.2.331.313a8.871,8.871,0,0,0,.884.773.94.94,0,0,1,.147.129.183.183,0,0,0,.092.074c.479.387.957.773,1.455,1.16l.018.018q.746.552,1.491,1.049c.018,0,.018,0,.018.018.5.331,1.013.644,1.51.957a.386.386,0,0,0,.111.074c.276.166.552.331.847.5h.018a2.374,2.374,0,0,0,.368.2.4.4,0,0,0,.092.055,3.692,3.692,0,0,1,.368.2.018.018,0,0,0,.005.013.019.019,0,0,0,.013.005v2.154a6.43,6.43,0,0,0,12.446,2.283,23.494,23.494,0,0,0,4.124.479,59.364,59.364,0,0,1,11.3,1.049c1.289.258,2.467.516,3.608.792a46.78,46.78,0,0,0,10.862,1.841c5.523,0,12.887-3.682,12.887-20.252C150.52,76.864,145.513,60.35,137.32,48.236Zm-36.287,8.285V56.5h.018Zm27.34-5.118a2.612,2.612,0,0,1-.368-.074l.368.055Z" transform="translate(-75.037)" fill="#d75e72"/><path d="M205.275,16.57a17.24,17.24,0,0,1-.994,5.523c-.35,0-.7,0-1.049.018h-.516c-.184,0-.368,0-.552.018-.294,0-.608.018-.921.037-.294.018-.571.037-.865.074-.258.018-.516.037-.773.074a18.4,18.4,0,0,0-3.645.773,8.007,8.007,0,0,0-.865.294,1.374,1.374,0,0,0-.2.074c-.35.129-.663.276-1.013.442-.092.037-.2.092-.313.147a6.851,6.851,0,0,0-.718.387,7.558,7.558,0,0,0-.718.442,6.183,6.183,0,0,0-.847.571,17.947,17.947,0,0,0-2.578,2.173c-.276.276-.571.571-.828.865a.855.855,0,0,0-.129.129c-.442.479-.865.957-1.252,1.436-.294.331-.552.663-.81.994q-.359.442-.663.884c-.221.294-.442.589-.644.884-.405.589-.773,1.178-1.123,1.749-.184.276-.35.571-.5.847,0,.018-.018.037-.037.055a2.032,2.032,0,0,1-.147.276c-.368.736-.7,1.436-.976,2.1a6.6,6.6,0,0,0-.258.7,8.588,8.588,0,0,0-.368,1.381,3.542,3.542,0,0,0-.092.589l.46,3.682c-.166-.074-3.793-3.811-3.977-3.885-.074-.018-.166-.055-.239-.074l-.442-.166c-1.27-.442-2.688-.921-4.2-1.491a.138.138,0,0,1-.074-.037c-.018,0-.055-.018-.074-.018a2.189,2.189,0,0,1-.2-.092V34.447c.055-7.4.994-17.564,6.241-23.676l-1.749-6.112a3.058,3.058,0,0,1,5.781-1.97l1.6,4.013A15.949,15.949,0,0,1,188.7,5.615V3.682a3.683,3.683,0,0,1,7.365,0v2.6C201.906,7.972,205.275,12.262,205.275,16.57Z" transform="translate(-151.884)" fill="#cc4b4c"/><g transform="translate(2.202 0)"><path d="M90.757,40.265V14.729c0-4.419-2.651-8.837-4.768-11.672A1.9,1.9,0,0,1,87.5,0h7.217a6.79,6.79,0,0,1,5.873,3.406,22.524,22.524,0,0,1,3.056,11.323V40.5Z" transform="translate(-85.595 -0.001)" fill="#84b5cb"/><path d="M249.578,111.915a4.576,4.576,0,0,1-5.137,4.492,15.039,15.039,0,0,0-7.916.571l.037.184.055.295.055.294.184,1.233a17.112,17.112,0,0,1,.129,2.044v.313a1.041,1.041,0,0,1-.018.239v.2c0,.111-.018.2-.018.313a2.721,2.721,0,0,1-.037.387c-.018.239-.037.5-.074.755-.018.129-.037.258-.055.368v.018c-.074.368-.147.718-.24,1.086l-.055.111a8.392,8.392,0,0,1-.331.957,1.629,1.629,0,0,1-.147.313c-.074.129-.129.258-.2.387s-.129.239-.2.35a.991.991,0,0,1-.184.294l-.111.166c-.037.037-.055.055-.055.074l-.055.055a5.608,5.608,0,0,1-.516.608,4.116,4.116,0,0,0-.387.442.347.347,0,0,0-.111.129l-.055.055a3.441,3.441,0,0,0-.368.534.138.138,0,0,1-.037.074,50.62,50.62,0,0,1-8.248.608c-.35,0-.736-.018-1.123-.055a22.486,22.486,0,0,1-5.855-1.362c-.258-.092-.5-.184-.736-.294-.258-.11-.516-.221-.755-.331a2.639,2.639,0,0,1-.331-.147,15,15,0,0,1-1.362-.773c-.018-.018-.018-.018-.037-.018v-.018h-.018v-.018a5.558,5.558,0,0,0-1.068-.994l-.018-.018a2.826,2.826,0,0,1-.2-1.491h.018c.018-.184.037-.387.074-.589a8.566,8.566,0,0,1,.368-1.381,6.546,6.546,0,0,1,.258-.7c.276-.663.608-1.362.976-2.1a2.009,2.009,0,0,0,.147-.276c.018-.018.037-.037.037-.055.147-.276.313-.571.5-.847.35-.571.718-1.16,1.123-1.749.2-.294.423-.589.645-.884q.3-.442.663-.884c.258-.331.516-.663.81-.994.387-.479.81-.957,1.252-1.436a.855.855,0,0,1,.129-.129c.258-.294.552-.589.828-.865a17.941,17.941,0,0,1,2.578-2.173,8.473,8.473,0,0,1,.847-.571,7.556,7.556,0,0,1,.718-.442,6.83,6.83,0,0,1,.718-.387c.111-.055.221-.11.313-.147.35-.166.663-.313,1.012-.442a1.375,1.375,0,0,1,.2-.074,7.963,7.963,0,0,1,.865-.294,18.417,18.417,0,0,1,3.645-.773c.258-.037.516-.055.773-.074.294-.037.571-.055.865-.074.313-.018.626-.037.92-.037.184-.018.368-.018.552-.018h.516c.35-.018.7-.018,1.049-.018h.994a26.666,26.666,0,0,1,8.174,1.712A4.568,4.568,0,0,1,249.578,111.915Z" transform="translate(-187.177 -83.839)" fill="#84b5cb"/></g><path d="M184.585,475.212a6.43,6.43,0,0,1-12.446-2.283v-2.154c.552.313,1.123.608,1.694.865h.018a32.844,32.844,0,0,0,3.388,1.454l.018.018c.534.2,1.068.405,1.6.571.516.184,1.049.35,1.546.5.46.147.9.276,1.344.387.129.037.258.055.368.092.405.111.792.2,1.178.276C183.738,475.046,184.18,475.138,184.585,475.212Z" transform="translate(-151.887 -372.591)" fill="#cc4b4c"/><g transform="translate(0 33.139)"><path d="M312.67,282.512a1.847,1.847,0,0,1-1.841,1.841,4.478,4.478,0,0,1-2.688-1.16,7.366,7.366,0,0,1-1.528,2.467A1.849,1.849,0,0,1,304,283.046a6.65,6.65,0,0,0,1.289-3.756,19.174,19.174,0,0,0-3.977-4.363,42.389,42.389,0,0,1-3.848,10.641,32.648,32.648,0,0,0-3.019,7.99c-1.141-.276-2.32-.534-3.608-.792a36.91,36.91,0,0,1,3.3-8.782c1.878-3.958,3.811-8.064,3.811-12.519a13.052,13.052,0,0,0-2.5-6.425c-.423-.718-.884-1.473-1.307-2.264a6.769,6.769,0,0,1-5.394,3.167,1.841,1.841,0,0,1,0-3.682c1.952,0,3.461-3.314,3.774-4.234a9.872,9.872,0,0,1-.092-1.289c0-5.174,2.927-14.544,3.627-16.717.074-.239.129-.387.147-.442a1.844,1.844,0,0,1,3.59.5,2.1,2.1,0,0,1-.092.681c-.018.055-.939,2.835-1.86,6.26.018.055.055.092.074.147.018.092,1.73,8.1,7.843,9.629,4.345,1.086,6.536,6.039,6.775,6.591a1.825,1.825,0,0,1-.976,2.412,2,2,0,0,1-.718.147,1.838,1.838,0,0,1-1.694-1.123c-.46-1.05-2.1-3.9-4.271-4.455a13.657,13.657,0,0,1-8.451-6.941,23.42,23.42,0,0,0-.313,3.314,13.053,13.053,0,0,0,2.5,6.425,17.864,17.864,0,0,1,2.964,7.309,25.172,25.172,0,0,1,7.217,7.53c1.123,2.228,2.062,2.633,2.209,2.669A1.857,1.857,0,0,1,312.67,282.512Z" transform="translate(-242.71 -221.757)" fill="#802d40"/><path d="M207.858,258.22a13.756,13.756,0,0,1-4.25-3.141l0,0c-.844-.845-1.3-4.065-1.3-6.064a1.842,1.842,0,0,0-1.841-1.839h0a1.842,1.842,0,0,0-1.839,1.841c0,1.05.115,6.4,2.381,8.666a7.235,7.235,0,0,1,1.3,4.222,1.841,1.841,0,0,0,3.682,0c0-.071-.005-.25-.017-.473a4.632,4.632,0,0,0,1.858.473,1.854,1.854,0,0,0,1.857-1.841,1.827,1.827,0,0,0-1.826-1.839Z" transform="translate(-172.846 -228.762)" fill="#802d40"/><path d="M163.7,304.236a11.958,11.958,0,0,1-3.765-.541l-.015-.031a73.932,73.932,0,0,0-1.8-10.921,1.841,1.841,0,0,0-3.573.892,63.849,63.849,0,0,1,1.786,12.442,9.788,9.788,0,0,0,4.7,9.011,1.813,1.813,0,0,0,.814.192,1.845,1.845,0,0,0,.858-3.474,5.818,5.818,0,0,1-2.564-4.214,17.818,17.818,0,0,0,3.557.325,1.841,1.841,0,0,0,0-3.682Z" transform="translate(-137.923 -263.733)" fill="#802d40"/><path d="M106.334,184.6c0,9.205-16.57,20.252-20.252,23.934a7.041,7.041,0,0,0-1.141,1.528,5.356,5.356,0,0,0-.423.865,30.819,30.819,0,0,0-1.326,4.142c-.092.331-.2.663-.313.976a1.037,1.037,0,0,1-.074.221v.018c-.018.074-.055.147-.074.2a6.382,6.382,0,0,1-.387.884c-.129.221-.258.423-.387.626a4.563,4.563,0,0,1-.46.552,3.241,3.241,0,0,1-.552.442,3.611,3.611,0,0,1-1.049.442,2.636,2.636,0,0,1-.405.074v.018a5.089,5.089,0,0,1-.773.055s-3.682,3.682-3.682-18.411c0-11.507,3.5-18.5,7.364-22.332v.037c3.259-3.222,6.775-4.179,8.69-3.645.018,0,.018-.018.037-.018a2.134,2.134,0,0,1,.479.184c1.27.626,2.5,1.16,3.682,1.6v.018c.074.018.129.055.2.074.018,0,.055.018.074.018a.14.14,0,0,0,.074.037c1.51.571,2.927,1.049,4.2,1.491l.442.166c.074.018.166.055.239.074.184.074.368.129.534.2h.018a15.935,15.935,0,0,1,3.167,1.491l.018.018a5.558,5.558,0,0,1,1.068.994v.018l.018.018c.129.184.276.368.405.571.018.018.018.037.037.055a3.611,3.611,0,0,1,.295.663,3.8,3.8,0,0,1,.184.792A4.71,4.71,0,0,1,106.334,184.6Z" transform="translate(-75.036 -171.712)" fill="#802d40"/><path d="M320.676,171.784a6.814,6.814,0,0,1-.313,2.209c-.055.129-.092.258-.147.387a3.442,3.442,0,0,1-.608.994c-.11.129-.221.239-.331.35a1.209,1.209,0,0,1-.331.276,5.442,5.442,0,0,1-1.215.663,1.964,1.964,0,0,1-.5.166,4.538,4.538,0,0,1-.534.147,11.5,11.5,0,0,1-1.491.239,4.918,4.918,0,0,1-.534.037c-.184.018-.387.037-.589.037-.239.018-.516.018-.773.018a8.625,8.625,0,0,1-5.836-1.915c-.129-.111-.239-.239-.35-.35a4.155,4.155,0,0,1-.516-.792c-.055-.129-.111-.276-.166-.423a1.576,1.576,0,0,1-.092-.423,3.363,3.363,0,0,1-.037-.423,2.04,2.04,0,0,1,.037-.46,1.9,1.9,0,0,1,.092-.442c.037-.111.073-.2.111-.313a.915.915,0,0,1,.055-.129,2.132,2.132,0,0,1,.221-.46.138.138,0,0,0,.037-.074,3.455,3.455,0,0,1,.368-.534l.055-.055a.344.344,0,0,1,.11-.129,4.139,4.139,0,0,1,.387-.442,5.63,5.63,0,0,0,.516-.608l.055-.055c0-.018.018-.037.055-.074l.111-.166a.992.992,0,0,0,.184-.294c.074-.111.129-.221.2-.35s.129-.258.2-.387a1.642,1.642,0,0,0,.147-.313,8.4,8.4,0,0,0,.331-.957l.056-.111c.092-.368.165-.718.239-1.086v-.018c.018-.111.037-.239.055-.368.037-.258.055-.516.074-.755a2.763,2.763,0,0,0,.037-.387c0-.111.018-.2.018-.313v-.2a1.03,1.03,0,0,0,.018-.239v-.313a17.108,17.108,0,0,0-.129-2.044c-.055-.479-.129-.9-.184-1.233l-.055-.295-.055-.294-.037-.184C315.152,158.9,320.676,166.261,320.676,171.784Z" transform="translate(-258.079 -158.897)" fill="#802d40"/></g></g></g></svg>