<svg id="noun_Bluetooth_Logo_Signal_644140" data-name="noun_Bluetooth Logo Signal_644140" xmlns="http://www.w3.org/2000/svg" width="53.762" height="50.361" viewBox="0 0 53.762 50.361">
  <g id="Group_914" data-name="Group 914" transform="translate(0 0)">
    <g id="Group_913" data-name="Group 913" transform="translate(0 0)">
      <g id="Group_912" data-name="Group 912">
        <g id="Group_911" data-name="Group 911">
          <path id="Path_37881" data-name="Path 37881" d="M50.964,31.085,35.738,15.859V36.926l-7.826-7.175L25.465,32.42,35.4,41.528l-9.994,9.995,2.559,2.559,7.77-7.77V66.219L51.02,50.936,40.635,41.414ZM39.357,24.6l6.488,6.488-6.488,6.488Zm6.431,26.452-6.431,6.432V45.154Z" transform="translate(-25.409 -15.859)" fill="#6c7179"/>
          <path id="Path_37882" data-name="Path 37882" d="M51.092,28.232a1.81,1.81,0,0,0-2.559,2.559,9.577,9.577,0,0,1,0,13.544A1.81,1.81,0,0,0,51.091,46.9a13.2,13.2,0,0,0,0-18.665Z" transform="translate(-17.482 -11.704)" fill="#6c7179"/>
          <path id="Path_37883" data-name="Path 37883" d="M54.9,23.76a1.81,1.81,0,1,0-2.558,2.561,18.118,18.118,0,0,1,0,25.623A1.809,1.809,0,0,0,54.9,54.5a21.736,21.736,0,0,0,0-30.744Z" transform="translate(-16.146 -13.273)" fill="#6c7179"/>
          <path id="Path_37884" data-name="Path 37884" d="M59.444,19.289a1.81,1.81,0,1,0-2.559,2.559,26.662,26.662,0,0,1,0,37.707,1.81,1.81,0,0,0,2.559,2.559,30.282,30.282,0,0,0,0-42.826Z" transform="translate(-14.552 -14.842)" fill="#6c7179"/>
        </g>
      </g>
    </g>
  </g>
</svg>
