<svg xmlns="http://www.w3.org/2000/svg" xmlns:xlink="http://www.w3.org/1999/xlink" width="117.574" height="216.479" viewBox="0 0 117.574 216.479"><defs><linearGradient id="a" x1="-1.469" y1="2.568" x2="-1.424" y2="2.666" gradientUnits="objectBoundingBox"><stop offset="0" stop-color="#e358a0"/><stop offset="1" stop-color="#ed482e"/></linearGradient></defs><g transform="translate(-107.676)"><path d="M347.676,155.668v22.089h3.74a3.409,3.409,0,0,0,3.608-3.612V159.276a3.41,3.41,0,0,0-3.608-3.612h-3.74Z" transform="translate(-129.775 -84.172)" fill="#656565"/><path d="M355.024,166.621v-7.337a3.41,3.41,0,0,0-3.608-3.612h-3.74v10.945h7.348Z" transform="translate(-129.775 -84.176)" fill="#888"/><path d="M343.068,272.426h2.182a3.408,3.408,0,0,0,3.608-3.608V239.3a3.408,3.408,0,0,0-3.608-3.608h-2.182Z" transform="translate(-127.283 -127.443)" fill="#656565"/><path d="M348.859,254.051V239.288a3.408,3.408,0,0,0-3.608-3.608h-2.182v18.371Z" transform="translate(-127.283 -127.439)" fill="#888"/><g transform="translate(107.749)"><path d="M217.911,64.147c-.254-8.19-3.476-13.984-8.594-17.449-3.7-2.759-6.632-7.98-8.223-11.243-4.383-8.994-1.238-25.025-5.813-30.25C191.038.36,174.214,0,162.886,0s-28.17.356-32.414,5.206c-4.571,5.225-1.429,21.255-5.813,30.25a37.306,37.306,0,0,1-9.67,12.334c-4.284,3.579-6.918,9.274-7.154,16.357Z" transform="translate(-107.836)" fill="#333"/><path d="M217.911,331.677c-.254,8.19-3.476,13.984-8.594,17.449-3.7,2.759-6.632,7.98-8.223,11.243-4.383,8.994-1.238,25.025-5.813,30.25-4.244,4.846-21.068,5.206-32.4,5.206s-28.17-.356-32.414-5.206c-4.571-5.225-1.429-21.255-5.813-30.25a37.3,37.3,0,0,0-9.67-12.334c-4.284-3.579-6.918-9.274-7.154-16.357C107.832,331.673,217.911,331.673,217.911,331.677Z" transform="translate(-107.836 -179.345)" fill="#333"/></g><path d="M195.856,91.672H129.721a22.044,22.044,0,0,0-22.045,22.045V201.9a22.044,22.044,0,0,0,22.045,22.045h66.135A22.044,22.044,0,0,0,217.9,201.9v-88.18A22.046,22.046,0,0,0,195.856,91.672Z" transform="translate(0 -49.57)" fill="#010101"/><path d="M195.856,99.02a14.711,14.711,0,0,1,14.7,14.7V201.9a14.712,14.712,0,0,1-14.7,14.7H129.721a14.712,14.712,0,0,1-14.7-14.7v-88.18a14.712,14.712,0,0,1,14.7-14.7h66.135m0-7.348H129.721a22.044,22.044,0,0,0-22.045,22.045V201.9a22.044,22.044,0,0,0,22.045,22.045h66.135A22.044,22.044,0,0,0,217.9,201.9v-88.18A22.046,22.046,0,0,0,195.856,91.672Z" transform="translate(0 -49.57)" fill="#4b4b4b"/><path d="M217.212,130.481a14.6,14.6,0,0,1,.4,3.277v88.18a14.712,14.712,0,0,1-14.7,14.7H136.776a14.705,14.705,0,0,1-14.3-11.419l-1.753,1.753a16.865,16.865,0,0,0,16.052,11.871h66.135a16.923,16.923,0,0,0,16.9-16.9v-88.18a16.769,16.769,0,0,0-.849-5.03Z" transform="translate(-7.055 -69.607)" fill="#888"/><path d="M121.477,211.231a14.6,14.6,0,0,1-.4-3.277v-88.18a14.712,14.712,0,0,1,14.7-14.7h66.135a14.705,14.705,0,0,1,14.3,11.419l1.753-1.753a16.87,16.87,0,0,0-16.052-11.871H135.777a16.92,16.92,0,0,0-16.9,16.9v88.18a16.672,16.672,0,0,0,.849,5.03Z" transform="translate(-6.056 -55.626)" fill="#676767"/><path d="M146.643,107.672a14.6,14.6,0,0,0-6.944,1.76l-.015.051a5.533,5.533,0,0,0,5.511,5.537H215a5.528,5.528,0,0,0,5.511-5.511l-.015-.077a14.626,14.626,0,0,0-6.944-1.76C213.55,107.676,146.643,107.676,146.643,107.672Z" transform="translate(-17.308 -58.221)" fill="#454545"/><path d="M146.652,103.346h66.907a14.6,14.6,0,0,1,6.944,1.76,5.518,5.518,0,0,0-5.5-5.434H145.2a5.521,5.521,0,0,0-5.5,5.434A14.656,14.656,0,0,1,146.652,103.346Z" transform="translate(-17.316 -53.895)" fill="#888"/><path d="M204.508,108.411a13.979,13.979,0,0,1,13.962,13.962v88.18a13.979,13.979,0,0,1-13.962,13.962H138.373a13.979,13.979,0,0,1-13.962-13.962v-88.18a13.979,13.979,0,0,1,13.962-13.962h66.135m0-.739H138.373a14.711,14.711,0,0,0-14.7,14.7v88.18a14.711,14.711,0,0,0,14.7,14.7h66.135a14.712,14.712,0,0,0,14.7-14.7v-88.18A14.714,14.714,0,0,0,204.508,107.672Z" transform="translate(-8.652 -58.221)" fill="#010101"/><rect width="1.837" height="22.045" transform="translate(217.916 71.496)" fill="#656565"/><path d="M197.4,231.119A25.719,25.719,0,1,1,223.114,205.4,25.752,25.752,0,0,1,197.4,231.119Zm0-44.094A18.371,18.371,0,1,0,215.766,205.4,18.392,18.392,0,0,0,197.4,187.025Z" transform="translate(-34.607 -97.158)" fill="#3b4b21"/><path d="M210.373,233.073a14.7,14.7,0,1,1,14.7-14.7A14.712,14.712,0,0,1,210.373,233.073Zm0-22.049a7.348,7.348,0,1,0,7.348,7.348A7.358,7.358,0,0,0,210.373,211.025Z" transform="translate(-47.584 -110.135)" fill="#254440"/><circle cx="33.068" cy="33.068" r="33.068" transform="translate(129.721 75.174)" fill="none" stroke="#361418" stroke-miterlimit="10" stroke-width="2"/><path d="M184.418,229.164a36.742,36.742,0,1,1,36.742-36.742A36.783,36.783,0,0,1,184.418,229.164Zm0-66.139a29.393,29.393,0,1,0,29.393,29.393A29.428,29.428,0,0,0,184.418,163.025Z" transform="translate(-21.629 -84.18)" fill="#361418"/><path d="M195.841,229.164a36.513,36.513,0,0,1-25.958-10.74,3.674,3.674,0,1,1,5.188-5.2,29.394,29.394,0,1,0,20.77-50.193,3.674,3.674,0,1,1,0-7.348,36.742,36.742,0,1,1,0,73.484Z" transform="translate(-33.053 -84.18)" fill="url(#a)"/><path d="M234.373,222.051a3.671,3.671,0,0,1-3.674-3.674,7.356,7.356,0,0,0-7.348-7.348,3.674,3.674,0,0,1,0-7.348,14.712,14.712,0,0,1,14.7,14.7A3.673,3.673,0,0,1,234.373,222.051Z" transform="translate(-60.562 -110.135)" fill="#87d1d1"/><path d="M223.35,231.119a3.674,3.674,0,0,1,0-7.348,18.371,18.371,0,0,0,0-36.742,3.674,3.674,0,0,1,0-7.348,25.719,25.719,0,1,1,0,51.439Z" transform="translate(-60.562 -97.158)" fill="#cddd47"/><circle cx="1.837" cy="1.837" r="1.837" transform="translate(149.929 154.169)" fill="#fff"/><g transform="translate(157.277 154.169)"><circle cx="1.837" cy="1.837" r="1.837" transform="translate(0)" fill="#383938"/><circle cx="1.837" cy="1.837" r="1.837" transform="translate(7.348)" fill="#383938"/><circle cx="1.837" cy="1.837" r="1.837" transform="translate(14.711)" fill="#383938"/></g></g></svg>